<svg width="31" height="31" viewBox="0 0 31 31" fill="none" xmlns="http://www.w3.org/2000/svg">
<path d="M28.2814 14.6094L30.1038 14.4219C29.9636 12.4531 29.4496 10.625 28.6552 8.98438L26.9262 9.73438L26.0384 8.1875L27.5337 7.0625C26.459 5.51562 25.1038 4.15625 23.5618 3.07812L22.4403 4.625L20.8982 3.73437L21.6459 2C20.0104 1.15625 18.1879 0.640625 16.272 0.5L16.0384 2.375H14.2627L14.029 0.5C12.1132 0.640625 10.2907 1.15625 8.60848 1.95313L9.35614 3.6875L7.81409 4.57812L6.69259 3.07812C5.10381 4.15625 3.7954 5.51562 2.72063 7.0625L4.21596 8.1875L3.32811 9.73438L1.59913 8.98438C0.851471 10.625 0.337453 12.4531 0.197266 14.4219L2.0197 14.6094V16.3906L0.197266 16.625C0.337453 18.5469 0.851471 20.375 1.64586 22.0625L3.37484 21.3125L4.26269 22.8594L2.76736 23.9844C3.84213 25.5781 5.15054 26.8906 6.73932 27.9688L7.86082 26.4219L9.40287 27.3125L8.65521 29.0469C10.2907 29.8438 12.1132 30.3594 14.0758 30.5L14.3094 28.6719H16.0851L16.3188 30.5C18.2346 30.3594 20.0571 29.8438 21.7393 29.0469L20.9917 27.3125L22.5337 26.4219L23.6552 27.9688C25.1973 26.8906 26.5524 25.5312 27.6272 23.9844L26.1318 22.8594L27.0197 21.3125L28.7487 22.0625C29.5431 20.375 30.0571 18.5469 30.1973 16.625L28.3748 16.3906V14.6094H28.2814ZM15.1505 24.875C10.0104 24.875 5.80474 20.6562 5.80474 15.5C5.80474 10.3438 10.0104 6.125 15.1505 6.125C20.2907 6.125 24.4963 10.3438 24.4963 15.5C24.4963 20.6562 20.2907 24.875 15.1505 24.875Z" fill="#2898FF"/>
<path d="M22.9614 16.6677C23.0915 16.9889 22.9374 17.355 22.6172 17.4855L20.8783 18.1949L22.4877 19.165C22.7878 19.337 22.8922 19.7204 22.7208 20.0215C22.5494 20.3226 22.1671 20.4273 21.867 20.2554C21.8589 20.2507 21.8509 20.2459 21.843 20.2409L20.2337 19.271L20.4258 21.1449C20.4555 21.4903 20.2005 21.7946 19.8561 21.8244C19.5195 21.8536 19.2206 21.6095 19.1808 21.2731L18.8929 18.4627L15.8175 16.6095V20.2084L18.0705 21.9034C18.347 22.1115 18.403 22.505 18.1956 22.7823C17.9882 23.0597 17.596 23.1159 17.3194 22.9079L15.8174 21.7779V23.6613C15.8174 24.008 15.5372 24.2891 15.1916 24.2891C14.846 24.2891 14.5657 24.008 14.5657 23.6613V21.7779L13.0637 22.9079C12.7872 23.1159 12.3949 23.0597 12.1875 22.7823C11.9801 22.505 12.0362 22.1115 12.3127 21.9034L14.5657 20.2084V16.6095L11.4906 18.4632L11.2027 21.2735C11.1729 21.6189 10.8696 21.8748 10.5253 21.8449C10.1809 21.8151 9.92585 21.5108 9.95561 21.1654C9.95621 21.1587 9.95686 21.152 9.95768 21.1453L10.1497 19.2714L8.54041 20.2414C8.2482 20.4265 7.86164 20.3391 7.67703 20.0459C7.49242 19.7528 7.57963 19.3651 7.87183 19.1799C7.87968 19.1749 7.88769 19.1701 7.89576 19.1654L9.50517 18.1954L7.7662 17.4859C7.4481 17.3503 7.29985 16.9817 7.43508 16.6626C7.56725 16.3506 7.92242 16.2003 8.23741 16.3229L10.8462 17.3871L13.9766 15.4999L10.846 13.613L8.23713 14.6775C7.91489 14.803 7.55232 14.6425 7.42728 14.3193C7.30508 14.0033 7.45497 13.647 7.76593 13.5144L9.50489 12.805L7.8956 11.8347C7.59543 11.6628 7.49111 11.2793 7.66248 10.9783C7.8339 10.6772 8.21615 10.5725 8.51626 10.7444C8.52433 10.7491 8.53229 10.7539 8.54019 10.7589L10.1495 11.7288L9.95746 9.85489C9.92219 9.50999 10.1723 9.20167 10.5161 9.1663C10.86 9.13092 11.1673 9.38183 11.2026 9.72673L11.4905 12.5371L14.5658 14.3906V10.7916L12.3128 9.09653C12.0362 8.88859 11.98 8.49514 12.1873 8.21766C12.3946 7.94018 12.7868 7.8838 13.0634 8.09174L13.0639 8.09207L14.5659 9.22207V7.33873C14.5658 6.99203 14.8461 6.71094 15.1917 6.71094C15.5373 6.71094 15.8175 6.99203 15.8175 7.33873V9.22212L17.3196 8.09212C17.5961 7.88408 17.9883 7.94028 18.1957 8.21766C18.4031 8.49503 18.3471 8.88854 18.0706 9.09658L15.8176 10.7916V14.3906L18.8929 12.5368L19.1808 9.72651C19.2215 9.38221 19.5329 9.13628 19.8761 9.17718C20.2116 9.21715 20.4549 9.51699 20.4258 9.85462L20.2337 11.7285L21.843 10.7586C22.1352 10.5734 22.5218 10.6609 22.7064 10.9541C22.891 11.2472 22.8038 11.6349 22.5115 11.8201C22.5037 11.8251 22.4957 11.8299 22.4876 11.8346L20.8782 12.8046L22.6171 13.5141C22.9352 13.6497 23.0835 14.0183 22.9482 14.3374C22.8161 14.6494 22.4609 14.7997 22.1459 14.6771L19.5371 13.6129L16.4067 15.5001L19.5374 17.387L22.1462 16.3228C22.4658 16.192 22.8306 16.3459 22.9609 16.6666L22.9614 16.6677Z" fill="#2898FF"/>
</svg>
