<svg width="26" height="25" viewBox="0 0 26 25" fill="none" xmlns="http://www.w3.org/2000/svg">
<path fill-rule="evenodd" clip-rule="evenodd" d="M23.1912 5.70373C23.1912 5.70373 23.1912 5.70374 23.1912 5.70373C23.2247 7.75055 23.1394 11.0824 22.4049 13.7874C20.9904 18.9983 18.027 22.6649 13.7942 24.4725C13.3788 24.6499 12.9513 24.8093 12.5117 24.9506L12.3563 24.9999L12.1975 24.9831H12.1942L12.0387 24.9999L11.8833 24.9506C11.4414 24.8086 11.0116 24.6482 10.5942 24.4697C6.36485 22.6611 3.40389 18.9955 1.99005 13.7874C1.25558 11.0823 1.16948 7.75032 1.20341 5.70352C1.20348 5.69906 1.20357 5.69399 1.20364 5.68954C1.20896 5.37478 1.2171 5.0907 1.22613 4.8443C1.22915 4.74096 1.25696 4.64025 1.30684 4.55207C1.35672 4.46388 1.42694 4.39126 1.51062 4.34133C1.59429 4.29139 1.68852 4.26588 1.78407 4.26728C1.87961 4.26868 1.97318 4.29696 2.05557 4.34933C2.80172 4.81907 3.96315 5.42817 4.99022 5.42817C5.45656 5.42817 5.9329 5.35128 6.42146 5.1903C6.72846 5.09146 7.02801 4.96736 7.31751 4.81907H7.31862C8.80427 4.05139 10.1689 2.69623 11.4225 1.34828C11.6293 1.12777 11.9072 1.00285 12.1975 0.999878C12.4878 1.00285 12.7657 1.12777 12.9725 1.34828C14.2261 2.69623 15.5907 4.05139 17.0764 4.81907C17.3663 4.96717 17.6662 5.09127 17.9735 5.1903C18.4621 5.35128 18.9373 5.42817 19.4048 5.42817C20.4318 5.42817 21.5933 4.82027 22.3394 4.34933C22.4218 4.29696 22.5154 4.26868 22.6109 4.26728C22.7065 4.26588 22.8007 4.29139 22.8844 4.34133C22.968 4.39126 23.0383 4.46388 23.0881 4.55207C23.138 4.64025 23.1658 4.74096 23.1689 4.8443C23.1777 5.09056 23.1858 5.37446 23.191 5.689C23.1911 5.69227 23.1911 5.69555 23.1912 5.69882C23.1912 5.70045 23.1912 5.7021 23.1912 5.70373ZM17.4778 6.71157C17.0901 6.58633 16.7126 6.42989 16.3486 6.24396L16.3419 6.24053C14.7631 5.42474 13.3681 4.09358 12.1975 2.86038C11.0269 4.09358 9.63187 5.42473 8.05313 6.24051L7.70758 6.41907H7.6797C7.43071 6.53031 7.17612 6.62801 6.91689 6.71167C6.27761 6.92174 5.63424 7.02817 4.99022 7.02817C4.22327 7.02817 3.46153 6.81371 2.79753 6.53994C2.80201 8.5091 2.94293 11.1907 3.53415 13.3681C4.95061 18.586 7.96949 21.9466 12.1975 23.3697C16.4255 21.9466 19.4444 18.586 20.8608 13.3682C21.4519 11.1912 21.5923 8.5102 21.597 6.54059C20.9329 6.81422 20.1715 7.02817 19.4048 7.02817C18.7593 7.02817 18.117 6.92164 17.4778 6.71157Z" fill="#AFAFAF"/>
<path fill-rule="evenodd" clip-rule="evenodd" d="M17.7629 8.43414C18.0753 8.74656 18.0753 9.2531 17.7629 9.56551L11.0682 16.2602L6.63153 11.8236C6.31911 11.5112 6.31911 11.0046 6.63153 10.6922C6.94395 10.3798 7.45048 10.3798 7.7629 10.6922L11.0682 13.9975L16.6315 8.43414C16.944 8.12172 17.4505 8.12172 17.7629 8.43414Z" fill="#AFAFAF"/>
</svg>
