<svg width="31" height="31" viewBox="0 0 31 31" fill="none" xmlns="http://www.w3.org/2000/svg">
<path d="M15.1972 19.2032C14.716 19.2035 14.2394 19.1095 13.7944 18.9264L11.4768 22.1179C12.577 22.7388 13.8463 23.0938 15.1972 23.0938C16.5484 23.0938 17.8181 22.7386 18.9185 22.1173L16.6001 18.9263C16.1551 19.1094 15.6784 19.2035 15.1972 19.2032ZM11.4941 15.5001C11.4941 15.4073 11.4987 15.3157 11.5054 15.2247L7.75164 14.005C7.65302 14.4972 7.6034 14.998 7.60352 15.5001C7.60352 17.7058 8.5491 19.6946 10.0558 21.0832L12.3733 17.8919C11.8255 17.246 11.4941 16.4113 11.4941 15.5001ZM14.3183 11.9032V7.95752C11.6397 8.26766 9.38166 9.97689 8.29598 12.3337L12.049 13.5531C12.5537 12.7401 13.364 12.1364 14.3183 11.9032Z" fill="#3A3A3A"/>
<path d="M15.1973 17.4453C16.2716 17.4453 17.1426 16.5744 17.1426 15.5C17.1426 14.4256 16.2716 13.5547 15.1973 13.5547C14.1229 13.5547 13.252 14.4256 13.252 15.5C13.252 16.5744 14.1229 17.4453 15.1973 17.4453Z" fill="#3A3A3A"/>
<path d="M18.9004 15.5001C18.9004 16.4112 18.569 17.2459 18.0212 17.8917L20.3394 21.0824C21.8457 19.6939 22.791 17.7054 22.791 15.5001C22.791 14.9884 22.7398 14.4886 22.6429 14.005L18.8891 15.2247C18.8958 15.3157 18.9004 15.4074 18.9004 15.5001Z" fill="#3A3A3A"/>
<path d="M29.7674 16.3789H29.2807C28.8075 16.3789 28.4002 16.0152 28.378 15.5425C28.3542 15.0378 28.7564 14.6211 29.2559 14.6211H29.7674C30.0184 14.6211 30.2177 14.4066 30.1957 14.1565C30.159 13.7409 30.105 13.3271 30.0339 12.916C29.991 12.6685 29.7427 12.5125 29.5 12.5776L29.0284 12.7039C28.5712 12.8264 28.0838 12.5805 27.9399 12.1297C27.7863 11.6483 28.0669 11.1417 28.5495 11.0125L29.0438 10.88C29.2866 10.815 29.4236 10.5556 29.3369 10.3196C29.1929 9.92816 29.0327 9.54287 28.8566 9.16476C28.7507 8.93736 28.471 8.8514 28.2537 8.97685L27.8335 9.21949C27.4236 9.45609 26.8891 9.34476 26.6335 8.9465C26.3605 8.52128 26.5004 7.95931 26.933 7.70958L27.3709 7.45681C27.5886 7.33113 27.6538 7.04501 27.5088 6.83958C27.2688 6.49936 27.0148 6.16916 26.7476 5.84982C26.5865 5.65728 26.2938 5.64656 26.1163 5.8241L25.7773 6.16306C25.4427 6.49769 24.8976 6.52845 24.5476 6.20994C24.1739 5.86986 24.1636 5.29083 24.5168 4.93763L24.8733 4.58109C25.0508 4.40355 25.0401 4.11093 24.8476 3.9498C24.5283 3.68257 24.1981 3.42861 23.8579 3.18855C23.6524 3.04359 23.3663 3.1088 23.2406 3.32654L23.0003 3.74291C22.7637 4.15277 22.2451 4.32357 21.8245 4.10648C21.3755 3.87468 21.2158 3.31804 21.4655 2.8855L21.7206 2.44376C21.846 2.2265 21.7602 1.94677 21.5327 1.84083C21.1546 1.66475 20.7693 1.50453 20.3779 1.3606C20.1419 1.27388 19.8826 1.41087 19.8175 1.65369L19.6914 2.12402C19.569 2.58111 19.1123 2.88035 18.6499 2.77951C18.1562 2.67187 17.8578 2.17552 17.9871 1.693L18.1199 1.19742C18.1849 0.954721 18.029 0.706401 17.7814 0.66351C17.3703 0.592346 16.9564 0.538374 16.5409 0.501733C16.2908 0.479585 16.0762 0.678921 16.0762 0.929936V1.41662C16.0762 1.88988 15.7125 2.2971 15.2398 2.31937C14.7351 2.3431 14.3184 1.94091 14.3184 1.44146V0.929936C14.3184 0.678921 14.1038 0.479585 13.8537 0.501674C13.4382 0.538369 13.0243 0.592342 12.6133 0.663452C12.3657 0.706342 12.2098 0.954663 12.2748 1.19736L12.4011 1.66892C12.5236 2.12607 12.2777 2.61351 11.8269 2.75736C11.3455 2.91099 10.8389 2.63033 10.7096 2.14787L10.5771 1.65357C10.5121 1.41076 10.2527 1.27376 10.0167 1.36048C9.62527 1.50439 9.23999 1.66461 8.86191 1.84072C8.63451 1.94666 8.54855 2.22638 8.674 2.44365L8.91664 2.86388C9.15324 3.27374 9.04191 3.80824 8.64365 4.06388C8.21843 4.33681 7.65646 4.19689 7.40673 3.76429L7.15396 3.32648C7.02828 3.10874 6.74216 3.04353 6.53673 3.18849C6.1965 3.42855 5.8663 3.68251 5.54697 3.94974C5.35443 4.11087 5.34371 4.40355 5.52125 4.58103L5.86021 4.91999C6.19484 5.25462 6.22566 5.79972 5.90714 6.14976C5.56707 6.52347 4.98804 6.53373 4.63484 6.18052L4.2783 5.82398C4.10076 5.64644 3.80808 5.65722 3.64701 5.8497C3.37979 6.16905 3.12583 6.49925 2.88576 6.83947C2.7408 7.0449 2.80601 7.33101 3.02374 7.45669L3.44011 7.69705C3.84998 7.93365 4.02078 8.4522 3.80369 8.87273C3.57189 9.32173 3.01525 9.48146 2.58271 9.23173L2.14097 8.97668C1.92371 8.85122 1.64392 8.93712 1.53804 9.16459C1.36192 9.54268 1.20171 9.92798 1.05781 10.3195C0.971089 10.5554 1.10808 10.8148 1.35089 10.8799L1.82123 11.0059C2.27837 11.1284 2.57755 11.585 2.47671 12.0475C2.36902 12.5411 1.87273 12.8395 1.39027 12.7103L0.894682 12.5775C0.651987 12.5125 0.403667 12.6684 0.360776 12.916C0.289637 13.327 0.235664 13.7409 0.198999 14.1564C0.176909 14.4065 0.376186 14.6211 0.62726 14.6211H1.11394C1.5872 14.6211 1.99443 14.9848 2.01664 15.4575C2.04037 15.9623 1.63818 16.3789 1.13873 16.3789H0.627202C0.376186 16.3789 0.17685 16.5935 0.19894 16.8436C0.235635 17.2591 0.289607 17.673 0.360717 18.084C0.403608 18.3316 0.651928 18.4876 0.894624 18.4225L1.36624 18.2961C1.82339 18.1737 2.31083 18.4195 2.45468 18.8704C2.60826 19.3518 2.32765 19.8584 1.84519 19.9876L1.35089 20.12C1.10808 20.1851 0.971089 20.4445 1.05781 20.6804C1.20171 21.0719 1.36192 21.4572 1.53804 21.8353C1.64398 22.0627 1.92371 22.1487 2.14097 22.0232L2.56121 21.7806C2.97107 21.544 3.50556 21.6553 3.76121 22.0536C4.03414 22.4788 3.89421 23.0408 3.46162 23.2905L3.0238 23.5433C2.80607 23.6689 2.74091 23.9551 2.88582 24.1605C3.12589 24.5007 3.37985 24.8309 3.64707 25.1502C3.8082 25.3428 4.10087 25.3535 4.27835 25.176L4.61732 24.837C4.95195 24.5024 5.49705 24.4716 5.84708 24.7901C6.2208 25.1302 6.23105 25.7092 5.87785 26.0624L5.5213 26.419C5.34376 26.5965 5.35455 26.8891 5.54703 27.0503C5.86634 27.3175 6.19652 27.5715 6.53673 27.8115C6.74216 27.9565 7.02828 27.8913 7.15396 27.6735L7.39431 27.2572C7.63091 26.8473 8.14953 26.6765 8.57005 26.8936C9.01906 27.1254 9.17878 27.682 8.92906 28.1146L8.674 28.5563C8.54855 28.7736 8.63445 29.0534 8.86191 29.1592C9.24 29.3353 9.62528 29.4955 10.0167 29.6395C10.2526 29.7262 10.512 29.5892 10.5771 29.3464L10.7032 28.876C10.8257 28.4189 11.2824 28.1197 11.7447 28.2206C12.2384 28.3282 12.5368 28.8245 12.4075 29.307L12.2748 29.8026C12.2097 30.0453 12.3657 30.2936 12.6133 30.3365C13.0243 30.4077 13.4382 30.4616 13.8538 30.4983C14.1039 30.5204 14.3185 30.3211 14.3185 30.0701V29.5834C14.3185 29.1101 14.6821 28.7029 15.1549 28.6806C15.6596 28.6569 16.0763 29.059 16.0763 29.5585V30.0701C16.0763 30.3211 16.2908 30.5204 16.5409 30.4983C16.9565 30.4616 17.3703 30.4076 17.7814 30.3365C18.029 30.2936 18.1849 30.0453 18.1199 29.8026L17.9936 29.331C17.871 28.8739 18.117 28.3864 18.5678 28.2426C19.0491 28.089 19.5557 28.3696 19.6851 28.8521L19.8175 29.3464C19.8826 29.5892 20.142 29.7262 20.3779 29.6395C20.7694 29.4956 21.1546 29.3354 21.5327 29.1592C21.7601 29.0533 21.846 28.7736 21.7206 28.5563L21.478 28.1361C21.2414 27.7262 21.3527 27.1917 21.751 26.9361C22.1762 26.6631 22.7381 26.8031 22.9879 27.2357L23.2406 27.6735C23.3664 27.8912 23.6524 27.9564 23.8579 27.8115C24.1981 27.5714 24.5283 27.3174 24.8476 27.0502C25.0402 26.8891 25.0509 26.5964 24.8734 26.4189L24.5344 26.08C24.1998 25.7453 24.1689 25.2002 24.4875 24.8502C24.8275 24.4765 25.4066 24.4662 25.7598 24.8194L26.1163 25.176C26.2938 25.3535 26.5865 25.3427 26.7476 25.1502C27.0148 24.8309 27.2688 24.5007 27.5088 24.1605C27.6538 23.9551 27.5886 23.6689 27.3709 23.5433L26.9545 23.3029C26.5446 23.0663 26.3738 22.5477 26.5909 22.1272C26.8227 21.6782 27.3794 21.5185 27.8119 21.7682L28.2536 22.0233C28.4709 22.1487 28.7506 22.0628 28.8566 21.8354C29.0326 21.4573 29.1929 21.072 29.3368 20.6805C29.4235 20.4445 29.2865 20.1852 29.0437 20.1201L28.5494 19.9877C28.0669 19.8584 27.7863 19.3518 27.9399 18.8705C28.0837 18.4196 28.5712 18.1737 29.0283 18.2962L29.9469 18.5423C30.0623 17.9813 30.1453 17.4142 30.1956 16.8436C30.2177 16.5935 30.0184 16.3789 29.7674 16.3789ZM15.1973 24.8516C10.0408 24.8516 5.84574 20.6565 5.84574 15.5C5.84574 10.3435 10.0408 6.14847 15.1973 6.14847C20.3538 6.14847 24.5489 10.3435 24.5489 15.5C24.5489 20.6565 20.3538 24.8516 15.1973 24.8516Z" fill="#3A3A3A"/>
<path d="M16.0762 7.9574V11.9031C17.0305 12.1364 17.8408 12.7401 18.3454 13.553L22.0984 12.3335C21.0128 9.97677 18.7548 8.26753 16.0762 7.9574Z" fill="#3A3A3A"/>
</svg>
