<svg width="24" height="22" viewBox="0 0 24 22" fill="none" xmlns="http://www.w3.org/2000/svg">
<path d="M2.53187 10.75C1.52172 10.75 0.699219 11.5989 0.699219 12.6414V18.6939C0.699219 19.7364 1.52172 20.5853 2.53187 20.5853H4.73106C5.14379 20.5853 5.52349 20.4415 5.83066 20.2024V10.75H2.53187Z" stroke="#AFAFAF" stroke-width="1.4"/>
<path d="M22.6955 12.9996C22.6955 12.4642 22.4835 11.9653 22.1155 11.5973C22.5316 11.1421 22.7436 10.5318 22.6857 9.89665C22.5814 8.76433 21.5614 7.87701 20.3623 7.87701H14.8593C15.1319 7.04937 15.5684 5.53223 15.5684 4.3135C15.5684 2.38119 13.9265 0.75 12.8958 0.75C11.9702 0.75 11.3091 1.27116 11.2806 1.29255C11.1755 1.37719 11.114 1.50548 11.114 1.64087V4.66183L8.54831 10.22L8.44141 10.2744V19.8228C9.16657 20.1649 10.0842 20.3493 10.6686 20.3493H18.846C19.8162 20.3493 20.6652 19.6954 20.8647 18.793C20.9671 18.3288 20.9075 17.8611 20.7035 17.4549C21.3618 17.1235 21.8046 16.4455 21.8046 15.6722C21.8046 15.3568 21.7324 15.0548 21.5953 14.7814C22.2536 14.4499 22.6955 13.772 22.6955 12.9996Z" stroke="#AFAFAF" stroke-width="1.4"/>
</svg>
