<svg width="23" height="23" viewBox="0 0 23 23" fill="none" xmlns="http://www.w3.org/2000/svg">
<path d="M11.6981 7.16372V21.6209M20.3724 11.5009H3.02384H20.3724ZM20.3724 11.5009C20.7558 11.5009 21.1236 11.3485 21.3947 11.0774C21.6658 10.8063 21.8181 10.4386 21.8181 10.0551V8.60943C21.8181 8.226 21.6658 7.85828 21.3947 7.58716C21.1236 7.31603 20.7558 7.16372 20.3724 7.16372H3.02384C2.64041 7.16372 2.27269 7.31603 2.00156 7.58716C1.73044 7.85828 1.57813 8.226 1.57812 8.60943V10.0551C1.57813 10.4386 1.73044 10.8063 2.00156 11.0774C2.27269 11.3485 2.64041 11.5009 3.02384 11.5009H20.3724ZM20.3724 11.5009V18.7294C20.3724 19.4963 20.0678 20.2317 19.5255 20.774C18.9833 21.3162 18.2478 21.6209 17.481 21.6209H5.91527C5.14841 21.6209 4.41297 21.3162 3.87072 20.774C3.32847 20.2317 3.02384 19.4963 3.02384 18.7294V11.5009H20.3724ZM11.6981 7.16372V5.718V7.16372ZM11.6981 7.16372H6.94751C6.6221 7.16372 6.29987 7.09962 5.99924 6.97509C5.6986 6.85056 5.42543 6.66804 5.19533 6.43794C4.73062 5.97323 4.46955 5.34296 4.46955 4.68576V4.27229C4.46955 3.50543 4.77419 2.76999 5.31643 2.22774C5.85868 1.68549 6.59413 1.38086 7.36098 1.38086C8.51126 1.38086 9.61443 1.83781 10.4278 2.65118C11.2412 3.46455 11.6981 4.56772 11.6981 5.718V7.16372ZM11.6981 7.16372H16.4487C17.8178 7.16372 18.9267 6.05341 18.9267 4.68576V4.27229C18.9267 3.50543 18.6221 2.76999 18.0798 2.22774C17.5376 1.68549 16.8021 1.38086 16.0353 1.38086C14.885 1.38086 13.7818 1.83781 12.9684 2.65118C12.1551 3.46455 11.6981 4.56772 11.6981 5.718V7.16372Z" stroke="#AFAFAF" stroke-width="1.4"/>
</svg>
