<svg width="26" height="25" viewBox="0 0 26 25" fill="none" xmlns="http://www.w3.org/2000/svg">
<path d="M24.945 19.1549L21.0329 15.2422L21.8049 14.6813C22.1728 14.415 22.4467 14.0388 22.587 13.6069C22.7273 13.175 22.7269 12.7097 22.5858 12.2781L22.0585 10.6556C22.0028 10.4852 22.0028 10.3016 22.0585 10.1313L22.5858 8.50871C22.7269 8.07708 22.7273 7.61178 22.587 7.17989C22.4467 6.74799 22.1728 6.37182 21.8049 6.10558L20.4247 5.10268C20.2795 4.9977 20.1715 4.84912 20.1166 4.67855L19.5893 3.05596C19.4498 2.62382 19.1766 2.24714 18.8093 1.98021C18.4419 1.71329 17.9992 1.56989 17.5451 1.5707H15.8389C15.6586 1.5707 15.4862 1.51468 15.3404 1.4087L13.9601 0.405864C13.5932 0.138306 13.1508 -0.00585938 12.6967 -0.00585938C12.2426 -0.00585938 11.8002 0.138306 11.4333 0.405864L10.0529 1.40877C9.90819 1.51438 9.73356 1.57113 9.55438 1.57077H7.84825C7.39412 1.56994 6.95147 1.71333 6.58408 1.98026C6.21669 2.24719 5.94354 2.62387 5.80399 3.05602L5.27675 4.67868C5.22168 4.84918 5.11376 4.99771 4.96862 5.10275L3.58837 6.10558C3.2205 6.37184 2.94667 6.74801 2.80634 7.1799C2.66601 7.61178 2.66642 8.07707 2.80752 8.50871L3.33477 10.1313C3.39046 10.3016 3.39046 10.4852 3.33477 10.6555L2.80752 12.2782C2.66641 12.7098 2.66599 13.1751 2.80632 13.607C2.94666 14.0389 3.2205 14.415 3.58837 14.6813L4.36044 15.2422L0.448311 19.1549C0.371899 19.2313 0.315731 19.3256 0.284881 19.4292C0.254031 19.5327 0.249471 19.6424 0.271611 19.7482C0.293752 19.8539 0.341897 19.9525 0.411697 20.0351C0.481496 20.1176 0.570752 20.1814 0.671402 20.2208L3.81348 21.4501L5.04285 24.5922C5.08223 24.6929 5.14606 24.7821 5.22858 24.8519C5.3111 24.9217 5.40972 24.9699 5.51551 24.992C5.6213 25.0141 5.73094 25.0096 5.83453 24.9787C5.93811 24.9479 6.03237 24.8917 6.1088 24.8152L10.918 20.0066L11.4333 20.3809C11.8002 20.6484 12.2426 20.7925 12.6967 20.7926C13.1507 20.7925 13.5931 20.6484 13.9601 20.3809L14.4753 20.0065L19.2846 24.8152C19.3611 24.8917 19.4553 24.9479 19.5589 24.9788C19.6625 25.0096 19.7721 25.0142 19.8779 24.9921C19.9837 24.9699 20.0823 24.9218 20.1648 24.852C20.2473 24.7822 20.3112 24.6929 20.3505 24.5922L21.5799 21.4501L24.722 20.2208C24.8226 20.1814 24.9118 20.1175 24.9816 20.035C25.0514 19.9525 25.0995 19.8539 25.1217 19.7482C25.1438 19.6424 25.1392 19.5328 25.1084 19.4292C25.0776 19.3256 25.0214 19.2314 24.945 19.1549ZM5.89215 23.1918L4.92152 20.711C4.88881 20.6274 4.83916 20.5515 4.77569 20.488C4.71221 20.4245 4.63629 20.3749 4.55269 20.3422L2.07189 19.3715L5.29099 16.1519L5.80406 17.7308C5.94359 18.163 6.21674 18.5397 6.58414 18.8066C6.95153 19.0736 7.39419 19.2169 7.84831 19.2161H9.55445C9.64735 19.2161 9.73811 19.2313 9.82425 19.2602L5.89215 23.1918ZM12.198 19.3283L10.8178 18.3254C10.451 18.0578 10.0085 17.914 9.55445 17.9149H7.84831C7.6691 17.9152 7.49442 17.8587 7.34944 17.7533C7.20446 17.648 7.09668 17.4993 7.04163 17.3288L6.51438 15.7062C6.37951 15.291 6.12591 14.9344 5.78122 14.6691C5.76943 14.659 5.75728 14.6495 5.74479 14.6404C5.74095 14.6375 5.73744 14.6343 5.73353 14.6315L4.35328 13.6286C4.20812 13.5235 4.10006 13.3751 4.04469 13.2047C3.98931 13.0342 3.98948 12.8506 4.04516 12.6803L4.5724 11.0577C4.71359 10.6262 4.71359 10.1608 4.5724 9.7293L4.04516 8.10677C3.98948 7.93642 3.98931 7.75279 4.04468 7.58234C4.10006 7.41189 4.20812 7.26342 4.35328 7.15832L5.73353 6.15548C6.10143 5.88937 6.37494 5.51293 6.51438 5.08082L7.04163 3.45822C7.09668 3.28768 7.20447 3.13903 7.34945 3.03369C7.49442 2.92835 7.66911 2.87177 7.84831 2.8721H9.55445C10.0085 2.87302 10.4511 2.72922 10.8178 2.46157L12.198 1.4588C12.3428 1.35319 12.5174 1.29628 12.6967 1.29628C12.8759 1.29628 13.0505 1.35319 13.1953 1.4588L14.5755 2.4617C14.9423 2.72934 15.3849 2.87314 15.8389 2.87223H17.5451C17.7243 2.87192 17.899 2.92852 18.0439 3.03385C18.1889 3.13919 18.2967 3.28783 18.3517 3.45835L18.879 5.08089C19.0184 5.51304 19.2919 5.88951 19.6598 6.15561L21.0402 7.15852C21.1853 7.26361 21.2934 7.41207 21.3487 7.58251C21.4041 7.75295 21.4039 7.93656 21.3482 8.1069L20.821 9.72956C20.6799 10.1611 20.6799 10.6264 20.821 11.0579L21.3482 12.6805C21.4039 12.8508 21.4041 13.0345 21.3487 13.2049C21.2933 13.3753 21.1853 13.5238 21.0401 13.6289L19.6599 14.6316C19.6551 14.6352 19.6507 14.6391 19.6459 14.6426C19.6349 14.6508 19.6241 14.6592 19.6135 14.6682C19.2681 14.9336 19.0141 15.2906 18.879 15.7063L18.3517 17.329C18.2967 17.4995 18.1889 17.6481 18.044 17.7535C17.899 17.8588 17.7243 17.9154 17.5451 17.9151H15.8389C15.3849 17.9142 14.9423 18.058 14.5755 18.3256L13.1953 19.3284C13.0505 19.4339 12.8759 19.4908 12.6967 19.4907C12.5174 19.4907 12.3429 19.4338 12.198 19.3283ZM20.8407 20.3422C20.7571 20.3749 20.6812 20.4245 20.6177 20.488C20.5542 20.5515 20.5046 20.6274 20.4719 20.711L19.5012 23.1918L15.5691 19.2602C15.656 19.231 15.7471 19.2161 15.8389 19.2162H17.5451C17.9992 19.217 18.4418 19.0736 18.8092 18.8067C19.1765 18.5398 19.4497 18.1631 19.5892 17.731L20.1023 16.1519L23.3216 19.3716L20.8407 20.3422Z" fill="#AFAFAF"/>
<path d="M15.7052 15.2197C15.7999 15.2197 15.8935 15.199 15.9795 15.1591C16.0654 15.1192 16.1416 15.0609 16.2026 14.9885C16.2637 14.9161 16.3082 14.8312 16.3331 14.7397C16.358 14.6483 16.3625 14.5525 16.3465 14.4592L15.8297 11.4458L18.019 9.31167C18.106 9.22693 18.1675 9.11956 18.1966 9.0017C18.2257 8.88384 18.2212 8.76019 18.1837 8.64473C18.1462 8.52928 18.0771 8.42662 17.9843 8.34837C17.8915 8.27012 17.7786 8.21939 17.6585 8.20194L14.6328 7.76226L13.2797 5.02056C13.226 4.91172 13.1429 4.82007 13.0398 4.75599C12.9367 4.69192 12.8177 4.65796 12.6963 4.65796C12.5749 4.65796 12.456 4.69192 12.3529 4.75599C12.2497 4.82007 12.1666 4.91172 12.1129 5.02056L10.7598 7.76226L7.73421 8.20194C7.61409 8.21942 7.50125 8.27015 7.40846 8.3484C7.31566 8.42666 7.2466 8.52931 7.20909 8.64476C7.17158 8.76021 7.16711 8.88384 7.19619 9.0017C7.22527 9.11955 7.28674 9.22692 7.37365 9.31167L9.56299 11.4458L9.04615 14.4592C9.02566 14.5788 9.03904 14.7018 9.08478 14.8142C9.13052 14.9267 9.20681 15.0241 9.30501 15.0954C9.40321 15.1668 9.51941 15.2092 9.64048 15.218C9.76154 15.2267 9.88265 15.2015 9.99011 15.145L12.6963 13.7223L15.4025 15.145C15.4958 15.1941 15.5997 15.2197 15.7052 15.2197ZM12.999 12.4114C12.9056 12.3623 12.8018 12.3367 12.6963 12.3367C12.5908 12.3367 12.4869 12.3623 12.3936 12.4114L10.5514 13.3799L10.9033 11.3286C10.9211 11.2246 10.9134 11.1179 10.8808 11.0175C10.8482 10.9172 10.7917 10.8263 10.7162 10.7527L9.22591 9.30002L11.2855 9.00068C11.3898 8.98552 11.489 8.9452 11.5743 8.88321C11.6596 8.82121 11.7286 8.73939 11.7753 8.6448L12.6963 6.77862L13.6173 8.64487C13.664 8.73945 13.7329 8.82126 13.8183 8.88326C13.9036 8.94525 14.0027 8.98557 14.1071 9.00074L16.1667 9.30009L14.6764 10.7527C14.6009 10.8264 14.5444 10.9173 14.5118 11.0176C14.4792 11.1179 14.4715 11.2247 14.4893 11.3287L14.8411 13.3799L12.999 12.4114Z" fill="#AFAFAF"/>
</svg>
