<svg width="31" height="31" viewBox="0 0 31 31" fill="none" xmlns="http://www.w3.org/2000/svg">
<path fill-rule="evenodd" clip-rule="evenodd" d="M9.32596 1.69533L9.04633 4.01592C9.02936 4.157 8.95703 4.28555 8.84527 4.3733C8.73351 4.46106 8.59146 4.50082 8.45038 4.48384C8.3093 4.46686 8.18075 4.39454 8.093 4.28277C8.00524 4.17101 7.96548 4.02897 7.98246 3.88789L8.18067 2.24173C6.22973 3.27864 4.53033 4.73135 3.20253 6.49722L4.11481 8.63353C4.16322 8.76276 4.15994 8.90567 4.10567 9.03254C4.05139 9.15941 3.95029 9.26048 3.8234 9.31471C3.69652 9.36894 3.5536 9.37217 3.42439 9.32372C3.29519 9.27527 3.18963 9.17887 3.12968 9.05458L2.48364 7.5418C1.30875 9.41116 0.564044 11.5183 0.303403 13.7108L2.15313 15.0982C2.26678 15.1834 2.34192 15.3103 2.36202 15.451C2.38211 15.5916 2.34551 15.7345 2.26026 15.8482C2.17502 15.9618 2.04812 16.037 1.90747 16.057C1.76683 16.0771 1.62396 16.0405 1.5103 15.9553L0.206979 14.9777C0.127468 17.1816 0.536887 19.3758 1.40584 21.4027L3.68626 21.6775C3.97982 21.7128 4.1898 21.9802 4.15445 22.2737C4.13716 22.4147 4.0647 22.5431 3.95295 22.6307C3.8412 22.7184 3.69926 22.7582 3.55823 22.7414L1.95599 22.548C2.99415 24.4907 4.44522 26.1823 6.2072 27.5042L8.30387 26.609C8.4331 26.5606 8.57601 26.5639 8.70288 26.6182C8.82975 26.6724 8.93082 26.7735 8.98505 26.9004C9.03928 27.0273 9.04251 27.1702 8.99406 27.2994C8.94561 27.4286 8.84921 27.5342 8.72492 27.5941L7.25339 28.2225C9.1176 29.3909 11.2174 30.132 13.402 30.3926L14.7685 28.5707C14.8107 28.5144 14.8636 28.467 14.9242 28.4312C14.9847 28.3953 15.0517 28.3718 15.1213 28.3618C15.191 28.3519 15.2619 28.3557 15.33 28.3732C15.3982 28.3906 15.4622 28.4214 15.5185 28.4636C15.5748 28.5058 15.6222 28.5587 15.658 28.6192C15.6939 28.6797 15.7174 28.7467 15.7274 28.8164C15.7373 28.886 15.7335 28.9569 15.716 29.0251C15.6985 29.0932 15.6678 29.1572 15.6256 29.2135L14.6684 30.4901C16.8654 30.5702 19.053 30.1645 21.0752 29.3019L21.3478 27.0376C21.3648 26.8965 21.4371 26.7679 21.5489 26.6802C21.6607 26.5924 21.8027 26.5527 21.9438 26.5696C22.0849 26.5866 22.2134 26.6589 22.3012 26.7707C22.3889 26.8825 22.4287 27.0245 22.4117 27.1656L22.2199 28.7544C24.161 27.7217 25.8529 26.2772 27.1772 24.522L26.2794 22.42C26.2309 22.2907 26.2342 22.1478 26.2885 22.0209C26.3428 21.8941 26.4439 21.793 26.5708 21.7388C26.6976 21.6845 26.8406 21.6813 26.9698 21.7298C27.099 21.7782 27.2045 21.8746 27.2645 21.9989L27.8971 23.4795C29.0703 21.6187 29.8172 19.5214 30.0843 17.3379L28.241 15.9553C28.1848 15.9131 28.1373 15.8602 28.1015 15.7997C28.0657 15.7391 28.0421 15.6721 28.0321 15.6025C28.0222 15.5329 28.0261 15.4619 28.0435 15.3938C28.061 15.3256 28.0917 15.2616 28.1339 15.2053C28.1761 15.1491 28.229 15.1016 28.2895 15.0658C28.35 15.03 28.417 15.0064 28.4867 14.9964C28.5563 14.9865 28.6272 14.9904 28.6954 15.0078C28.7635 15.0253 28.8276 15.056 28.8839 15.0982L30.1856 16.0742C30.2727 13.8736 29.8721 11.6811 29.0124 9.65348L26.7079 9.37599C26.5668 9.35902 26.4383 9.28669 26.3505 9.17493C26.2628 9.06317 26.223 8.92112 26.24 8.78004C26.257 8.63896 26.3293 8.51041 26.441 8.42266C26.5528 8.3349 26.6949 8.29514 26.8359 8.31212L28.4687 8.50872C27.4372 6.55936 25.991 4.85976 24.232 3.52952L22.0903 4.44447C21.9599 4.4989 21.8133 4.49962 21.6824 4.44647C21.5515 4.39331 21.4469 4.29059 21.3913 4.16066C21.3358 4.03074 21.3338 3.88414 21.3859 3.75279C21.4379 3.62143 21.5398 3.51596 21.6692 3.45934L23.1911 2.80902C21.3251 1.62936 19.2205 0.878827 17.0291 0.611632L15.6256 2.48278C15.5404 2.59644 15.4135 2.67158 15.2728 2.69167C15.1322 2.71177 14.9893 2.67517 14.8757 2.58992C14.762 2.50468 14.6869 2.37777 14.6668 2.23713C14.6467 2.09649 14.6833 1.95362 14.7685 1.83996L15.7649 0.511459C13.5574 0.424934 11.3583 0.829272 9.32596 1.69533ZM15.1971 5.85761C9.87558 5.85761 5.55473 10.1785 5.55473 15.5C5.55473 20.8215 9.87558 25.1423 15.1971 25.1423C20.5186 25.1423 24.8394 20.8215 24.8394 15.5C24.8394 10.1785 20.5186 5.85761 15.1971 5.85761Z" fill="#BD0808"/>
<path fill-rule="evenodd" clip-rule="evenodd" d="M11.8041 22.189C12.8235 22.707 13.9763 22.9995 15.1971 22.9995C16.4179 22.9995 17.5707 22.707 18.5901 22.189C17.762 20.7507 16.6311 19.592 15.1971 18.714C13.7631 19.592 12.6322 20.7507 11.8041 22.189ZM22.6073 14.3401C20.9836 14.6829 19.5324 15.4008 18.2537 16.493C18.6459 18.1274 19.3974 19.5604 20.509 20.7919C21.2035 20.0969 21.7542 19.2717 22.1296 18.3636C22.505 17.4556 22.6977 16.4824 22.6967 15.4999C22.6967 15.1056 22.6662 14.7178 22.6073 14.3401ZM7.78697 14.3401C7.72804 14.7178 7.69751 15.1056 7.69751 15.4999C7.69751 17.5644 8.53372 19.4355 9.88525 20.7919C10.9968 19.5604 11.7484 18.1274 12.1405 16.493C10.8618 15.4008 9.41063 14.6829 7.78697 14.3401ZM14.0106 8.09399C11.6123 8.4754 9.5917 9.99568 8.52086 12.0827C10.0358 12.7598 11.6316 13.0319 13.3077 12.8996C13.9516 11.3461 14.1857 9.74444 14.0106 8.09399ZM16.3837 8.09399C16.2085 9.74444 16.4426 11.3461 17.0865 12.8996C18.7626 13.0319 20.3584 12.7598 21.8734 12.0827C20.8025 9.99622 18.7819 8.47594 16.3837 8.09399ZM15.1971 13.881C14.775 13.8919 14.3738 14.0672 14.0791 14.3696C13.7843 14.672 13.6194 15.0776 13.6194 15.4999C13.6194 15.9221 13.7843 16.3277 14.0791 16.6301C14.3738 16.9325 14.775 17.1078 15.1971 17.1187C16.0906 17.1187 16.816 16.3928 16.816 15.4999C16.816 14.6069 16.0906 13.881 15.1971 13.881ZM15.1971 14.9524C15.2705 14.9501 15.3436 14.9626 15.412 14.9892C15.4805 15.0157 15.5429 15.0557 15.5956 15.1068C15.6482 15.1579 15.6901 15.2191 15.7187 15.2867C15.7473 15.3543 15.762 15.427 15.762 15.5004C15.7619 15.5738 15.7472 15.6465 15.7185 15.714C15.6899 15.7816 15.6479 15.8428 15.5952 15.8938C15.5424 15.9449 15.48 15.9848 15.4115 16.0113C15.343 16.0378 15.2699 16.0502 15.1966 16.0479C15.0543 16.0434 14.9193 15.9838 14.8202 15.8815C14.7211 15.7793 14.6657 15.6425 14.6657 15.5001C14.6657 15.3577 14.7211 15.221 14.8202 15.1187C14.9193 15.0165 15.0548 14.9568 15.1971 14.9524Z" fill="#BD0808"/>
</svg>
